<?xml version="1.0" encoding="utf-8"?>
<!-- Generator: Adobe Illustrator 16.0.4, SVG Export Plug-In . SVG Version: 6.00 Build 0)  -->
<!DOCTYPE svg PUBLIC "-//W3C//DTD SVG 1.1//EN" "http://www.w3.org/Graphics/SVG/1.1/DTD/svg11.dtd">
<svg version="1.1" id="Layer_1" xmlns="http://www.w3.org/2000/svg" xmlns:xlink="http://www.w3.org/1999/xlink" x="0px" y="0px"
	 width="651.969px" height="651.968px" viewBox="0 0 651.969 651.968" enable-background="new 0 0 651.969 651.968"
	 xml:space="preserve">
<g>
	<path opacity="0.9" fill="#FFFFFF" enable-background="new    " d="M314.941,576.958c-0.507,3.408-3.679,5.758-7.087,5.252
		l-19.02-2.828c-3.407-0.508-5.76-3.678-5.253-7.084l81.445-547.957c0.505-3.408,3.68-5.759,7.086-5.253l19.021,2.827
		c3.405,0.507,5.758,3.679,5.252,7.087L314.941,576.958z"/>
	<path fill="#F5BE1E" d="M216.895,581.533c-4.581-54.322-50.664-307.434-64.205-407.395c40.094,12.103,84.502,17.647,140.31,17.647
		c42.745,0,88.397-13.895,126.384-17.797c47.558-4.885,80.109,0.117,90.966,0.117c0,0-56.607,291.441-65.752,409.758
		c-1.09,0.439-2.204,0.865-3.354,1.277C379.404,607.466,217.942,593.943,216.895,581.533z"/>
	<g>
		<g>
			<defs>
				<rect id="SVGID_1_" x="119.013" y="101.913" width="220.97" height="514.364"/>
			</defs>
			<clipPath id="SVGID_2_">
				<use xlink:href="#SVGID_1_"  overflow="visible"/>
			</clipPath>
			<path clip-path="url(#SVGID_2_)" fill="#FDD846" d="M216.895,581.533c-4.581-54.322-50.664-307.434-64.205-407.395
				c40.094,12.103,84.502,17.647,140.31,17.647c42.745,0,88.397-13.895,126.384-17.797c47.558-4.885,80.109,0.117,90.966,0.117
				c0,0-56.607,291.441-65.752,409.758c-1.09,0.439-2.204,0.865-3.354,1.277C379.404,607.466,217.942,593.943,216.895,581.533z"/>
		</g>
	</g>
	<path opacity="0.8" fill="#FFFFFF" enable-background="new    " d="M521.398,138.331h-379.61v3.088h0.053
		c13.004,108.935,60.387,405.342,65.348,464.182c1.136,13.461,176.262,28.131,243.335,3.914c1.246-0.445,2.456-0.906,3.639-1.387
		c9.715-125.693,67.021-453.308,67.232-466.709h0.004V138.331L521.398,138.331z M444.597,583.863
		c-1.09,0.439-2.204,0.865-3.354,1.277c-61.839,22.326-223.301,8.803-224.348-3.607c-4.541-53.855-56.101-337.683-68.604-440.114
		h367.687C511.657,172.506,453.263,471.751,444.597,583.863z"/>
	<path opacity="0.6" fill="#FFFFFF" enable-background="new    " d="M264.818,188.897c2.264,4.544,0.416,10.062-4.128,12.326
		l-64.713,32.238c-4.543,2.264-10.062,0.417-12.325-4.128l-32.238-64.712c-2.263-4.543-0.416-10.062,4.128-12.325l64.713-32.238
		c4.545-2.265,10.062-0.415,12.326,4.128L264.818,188.897z"/>
	<path opacity="0.7" fill="#FFFFFF" enable-background="new    " d="M316.952,225.033c-1.143,4.904-6.045,7.951-10.948,6.808
		l-69.84-16.285c-4.904-1.145-7.953-6.045-6.808-10.95l16.287-69.839c1.143-4.903,6.045-7.951,10.947-6.808l69.84,16.286
		c4.902,1.145,7.952,6.045,6.808,10.95L316.952,225.033z"/>
	<path opacity="0.6" fill="#FFFFFF" enable-background="new    " d="M371.731,224.218c0.7,4.5-2.381,8.714-6.879,9.412
		l-64.093,9.952c-4.5,0.698-8.714-2.381-9.413-6.883l-9.951-64.088c-0.698-4.501,2.383-8.715,6.882-9.414l64.09-9.952
		c4.498-0.698,8.715,2.382,9.413,6.883L371.731,224.218z"/>
	<path opacity="0.7" fill="#FFFFFF" enable-background="new    " d="M426.619,214.227c-1.253,4.378-5.818,6.909-10.194,5.655
		l-62.351-17.868c-4.378-1.255-6.91-5.819-5.654-10.198l17.866-62.347c1.259-4.378,5.821-6.91,10.199-5.655l62.348,17.869
		c4.378,1.255,6.909,5.821,5.653,10.198L426.619,214.227z"/>
	<path opacity="0.6" fill="#FFFFFF" enable-background="new    " d="M486.134,220.273c-1.573,4.137-6.201,6.213-10.337,4.639
		l-58.906-22.423c-4.136-1.576-6.214-6.204-4.64-10.341l22.425-58.904c1.575-4.135,6.204-6.211,10.34-4.637l58.905,22.423
		c4.136,1.575,6.214,6.204,4.637,10.34L486.134,220.273z"/>
	<g>
		<g>
			<defs>
				<path id="SVGID_3_" d="M216.895,581.533c-4.581-54.322-50.664-307.434-64.205-407.395
					c40.094,12.103,84.502,17.647,140.31,17.647c42.745,0,88.397-13.895,126.384-17.797c47.558-4.885,80.109,0.117,90.966,0.117
					c0,0-56.607,291.441-65.752,409.758c-1.09,0.439-2.204,0.865-3.354,1.277C379.404,607.466,217.942,593.943,216.895,581.533z"/>
			</defs>
			<clipPath id="SVGID_4_">
				<use xlink:href="#SVGID_3_"  overflow="visible"/>
			</clipPath>
			<path opacity="0.2" clip-path="url(#SVGID_4_)" fill="#FFFFFF" enable-background="new    " d="M314.941,576.958
				c-0.507,3.408-3.679,5.758-7.087,5.252l-19.02-2.828c-3.407-0.508-5.76-3.678-5.253-7.084l81.445-547.957
				c0.505-3.408,3.68-5.759,7.086-5.253l19.021,2.827c3.405,0.507,5.758,3.679,5.252,7.087L314.941,576.958z"/>
		</g>
	</g>
	<g>
		<path fill="#FFFFFF" d="M220.043,315.022h-9.993v-7.199h9.993v-9.858h7.227v9.858h9.992v7.199h-9.992v9.697h-7.227V315.022z"/>
		<path fill="#FFFFFF" d="M256.683,330.817v-39.271h10.664v39.271H256.683z"/>
		<path fill="#FFFFFF" d="M288.528,331.354c-4.979,0-8.752-1.343-11.322-4.028c-2.569-2.687-3.854-6.546-3.854-11.578
			c0-5.05,1.388-8.962,4.164-11.738c2.774-2.776,6.724-4.164,11.846-4.164c3.528,0,6.85,0.77,9.966,2.31l-3.089,7.763
			c-1.271-0.555-2.444-0.998-3.519-1.33c-1.074-0.331-2.194-0.497-3.358-0.497c-1.701,0-3.018,0.663-3.948,1.988
			c-0.932,1.326-1.396,3.197-1.396,5.614c0,4.871,1.8,7.306,5.398,7.306c3.08,0,6.034-0.895,8.864-2.686v8.354
			C295.574,330.458,292.324,331.354,288.528,331.354z"/>
		<path fill="#FFFFFF" d="M318.466,331.354c-5.068,0-9.003-1.349-11.806-4.043c-2.803-2.694-4.204-6.531-4.204-11.51
			c0-5.139,1.298-9.083,3.896-11.833c2.596-2.749,6.303-4.123,11.121-4.123c4.584,0,8.125,1.195,10.624,3.586
			c2.499,2.391,3.747,5.833,3.747,10.328v4.674h-18.776c0.071,1.702,0.694,3.036,1.867,4.002c1.173,0.967,2.771,1.451,4.795,1.451
			c1.844,0,3.541-0.175,5.09-0.524c1.549-0.349,3.228-0.944,5.037-1.786v7.548c-1.646,0.842-3.349,1.424-5.104,1.746
			C322.997,331.192,320.901,331.354,318.466,331.354z M317.848,306.991c-1.235,0-2.271,0.39-3.104,1.168
			c-0.833,0.779-1.32,2.001-1.464,3.667h9.025c-0.036-1.468-0.452-2.641-1.249-3.519
			C320.26,307.429,319.191,306.991,317.848,306.991z"/>
		<path fill="#FFFFFF" d="M220.043,381.037h-9.993v-7.197h9.993v-9.858h7.227v9.858h9.992v7.197h-9.992v9.697h-7.227V381.037z"/>
		<path fill="#FFFFFF" d="M282.363,384.905c0,2.437-0.618,4.599-1.854,6.487c-1.235,1.891-3.018,3.357-5.345,4.404
			c-2.329,1.049-5.06,1.572-8.192,1.572c-2.615,0-4.809-0.186-6.581-0.552c-1.773-0.366-3.618-1.007-5.534-1.92v-9.456
			c2.022,1.039,4.127,1.85,6.312,2.432c2.186,0.582,4.19,0.873,6.018,0.873c1.576,0,2.729-0.272,3.465-0.818
			c0.735-0.547,1.102-1.249,1.102-2.109c0-0.537-0.147-1.007-0.442-1.41c-0.295-0.402-0.771-0.81-1.423-1.222
			c-0.654-0.412-2.396-1.253-5.226-2.524c-2.561-1.164-4.481-2.293-5.762-3.386c-1.28-1.092-2.229-2.346-2.847-3.76
			c-0.618-1.415-0.928-3.091-0.928-5.022c0-3.617,1.316-6.438,3.949-8.463c2.632-2.023,6.25-3.035,10.853-3.035
			c4.064,0,8.21,0.94,12.437,2.82l-3.25,8.193c-3.671-1.684-6.841-2.525-9.509-2.525c-1.379,0-2.382,0.242-3.008,0.727
			c-0.627,0.482-0.94,1.084-0.94,1.799c0,0.771,0.398,1.461,1.195,2.068c0.797,0.608,2.959,1.719,6.486,3.332
			c3.385,1.521,5.735,3.155,7.052,4.9C281.705,380.056,282.363,382.255,282.363,384.905z"/>
		<path fill="#FFFFFF" d="M308.943,396.832l-1.315-3.787h-0.618c-0.879,1.396-2.101,2.468-3.668,3.211
			c-1.566,0.742-3.406,1.113-5.52,1.113c-3.349,0-5.955-0.971-7.817-2.914c-1.862-1.942-2.793-4.688-2.793-8.232v-19.824h10.503
			v16.628c0,1.987,0.282,3.492,0.847,4.513c0.563,1.021,1.491,1.531,2.779,1.531c1.81,0,3.099-0.712,3.868-2.136
			c0.771-1.425,1.155-3.828,1.155-7.212v-13.324h10.502v30.436h-7.923V396.832z"/>
		<path fill="#FFFFFF" d="M352.284,366.397v5.077l-4.163,1.531c0.573,1.039,0.859,2.246,0.859,3.625c0,3.277-1.15,5.82-3.451,7.629
			c-2.302,1.81-5.734,2.714-10.302,2.714c-1.128,0-2.023-0.071-2.688-0.216c-0.251,0.467-0.376,0.904-0.376,1.316
			c0,0.521,0.422,0.918,1.264,1.195s1.942,0.416,3.304,0.416h5.051c6.822,0,10.233,2.875,10.233,8.623c0,3.707-1.58,6.59-4.74,8.648
			c-3.161,2.059-7.598,3.09-13.311,3.09c-4.315,0-7.643-0.721-9.979-2.162s-3.505-3.516-3.505-6.219c0-3.637,2.256-5.98,6.769-7.039
			c-0.931-0.394-1.741-1.028-2.431-1.905c-0.689-0.878-1.034-1.746-1.034-2.606c0-0.947,0.26-1.785,0.779-2.511
			c0.519-0.726,1.603-1.59,3.25-2.593c-1.576-0.698-2.816-1.79-3.72-3.276c-0.904-1.485-1.356-3.295-1.356-5.427
			c0-3.312,1.128-5.883,3.385-7.709c2.258-1.826,5.48-2.74,9.671-2.74c0.555,0,1.513,0.062,2.874,0.188
			c1.359,0.125,2.362,0.242,3.009,0.35L352.284,366.397L352.284,366.397z M329.344,400.619c0,0.859,0.466,1.555,1.396,2.082
			c0.932,0.527,2.176,0.793,3.733,0.793c2.542,0,4.58-0.318,6.111-0.953c1.529-0.637,2.296-1.455,2.296-2.459
			c0-0.805-0.467-1.373-1.396-1.705c-0.932-0.332-2.266-0.496-4.002-0.496h-4.11c-1.128,0-2.082,0.264-2.859,0.791
			C329.734,399.201,329.344,399.849,329.344,400.619z M332.648,376.363c0,3.116,1.084,4.674,3.251,4.674
			c1.002,0,1.776-0.385,2.323-1.154c0.546-0.771,0.819-1.924,0.819-3.465c0-3.151-1.049-4.729-3.144-4.729
			C333.732,371.689,332.648,373.248,332.648,376.363z"/>
		<path fill="#FFFFFF" d="M376.205,396.832l-2.015-4.028h-0.215c-1.414,1.755-2.856,2.954-4.324,3.6
			c-1.469,0.646-3.367,0.968-5.694,0.968c-2.865,0-5.122-0.859-6.77-2.578c-1.647-1.721-2.472-4.137-2.472-7.254
			c0-3.24,1.129-5.653,3.385-7.238c2.257-1.586,5.523-2.477,9.805-2.674l5.077-0.16v-0.43c0-2.508-1.236-3.762-3.707-3.762
			c-2.221,0-5.041,0.752-8.462,2.258l-3.035-6.932c3.546-1.826,8.022-2.74,13.432-2.74c3.903,0,6.926,0.969,9.065,2.901
			c2.14,1.934,3.21,4.639,3.21,8.112v19.957H376.205L376.205,396.832z M368.416,389.955c1.271,0,2.358-0.402,3.265-1.207
			c0.902-0.808,1.355-1.854,1.355-3.145v-2.363l-2.418,0.107c-3.456,0.125-5.185,1.396-5.185,3.814
			C365.433,389.024,366.427,389.955,368.416,389.955z"/>
		<path fill="#FFFFFF" d="M408.454,365.86c0.913,0,1.781,0.072,2.605,0.216l0.591,0.106l-0.939,9.911
			c-0.859-0.215-2.052-0.321-3.572-0.321c-2.293,0-3.958,0.522-4.996,1.571c-1.039,1.048-1.559,2.557-1.559,4.525v14.963H390.08
			v-30.436h7.817l1.639,4.861h0.511c0.877-1.61,2.1-2.914,3.667-3.907C405.279,366.357,406.859,365.86,408.454,365.86z"/>
		<path fill="#FFFFFF" d="M220.043,447.052h-9.993v-7.199h9.993v-9.857h7.227v9.857h9.992v7.199h-9.992v9.697h-7.227V447.052z"/>
		<path fill="#FFFFFF" d="M256.683,423.576h13.698c5.337,0,9.299,0.793,11.887,2.377c2.588,1.586,3.882,4.053,3.882,7.4
			c0,2.203-0.564,4.082-1.692,5.641s-2.614,2.562-4.459,3.01v0.27c2.436,0.645,4.199,1.719,5.292,3.223s1.64,3.457,1.64,5.855
			c0,3.564-1.34,6.371-4.017,8.422c-2.678,2.051-6.326,3.074-10.946,3.074h-15.283L256.683,423.576L256.683,423.576z
			 M267.293,438.644h3.196c1.522,0,2.7-0.312,3.532-0.939c0.833-0.625,1.25-1.559,1.25-2.793c0-2.203-1.666-3.305-4.997-3.305
			h-2.981V438.644L267.293,438.644z M267.293,446.408v8.248h3.734c3.312,0,4.969-1.398,4.969-4.191c0-1.307-0.442-2.311-1.33-3.008
			c-0.887-0.699-2.172-1.049-3.854-1.049H267.293z"/>
		<path fill="#FFFFFF" d="M314.261,462.847l-1.316-3.787h-0.618c-0.878,1.396-2.1,2.467-3.667,3.209
			c-1.566,0.742-3.407,1.115-5.52,1.115c-3.35,0-5.955-0.971-7.817-2.914c-1.863-1.943-2.793-4.688-2.793-8.232v-19.824h10.503
			v16.627c0,1.988,0.282,3.492,0.846,4.514c0.564,1.021,1.491,1.531,2.78,1.531c1.81,0,3.099-0.713,3.868-2.137
			c0.771-1.424,1.155-3.828,1.155-7.211v-13.324h10.502v30.434H314.261L314.261,462.847z"/>
		<path fill="#FFFFFF" d="M347.477,431.875c3.312,0,5.938,1.389,7.883,4.164s2.914,6.617,2.914,11.523
			c0,4.941-0.979,8.814-2.941,11.617c-1.961,2.805-4.688,4.203-8.178,4.203c-1.129,0-2.133-0.121-3.01-0.361
			c-0.877-0.242-1.66-0.578-2.35-1.008c-0.69-0.43-1.492-1.146-2.404-2.148h-0.646l-1.666,2.98h-8.192V421.05h10.504v9.455
			c0,1.129-0.125,3.072-0.377,5.828h0.377c1.021-1.574,2.197-2.713,3.531-3.41C344.257,432.224,345.774,431.875,347.477,431.875z
			 M343.635,440.123c-1.469,0-2.543,0.51-3.224,1.531c-0.682,1.021-1.021,2.623-1.021,4.809v1.479c0,2.488,0.34,4.273,1.021,5.357
			s1.789,1.625,3.33,1.625c1.236,0,2.185-0.631,2.849-1.895c0.662-1.262,0.994-3.119,0.994-5.572
			C347.585,442.568,346.268,440.123,343.635,440.123z"/>
		<path fill="#FFFFFF" d="M382.303,431.875c3.312,0,5.939,1.389,7.884,4.164c1.942,2.775,2.914,6.617,2.914,11.523
			c0,4.941-0.98,8.814-2.941,11.617c-1.961,2.805-4.688,4.203-8.179,4.203c-1.129,0-2.132-0.121-3.009-0.361
			c-0.878-0.242-1.661-0.578-2.352-1.008c-0.689-0.43-1.49-1.146-2.403-2.148h-0.646l-1.665,2.98h-8.192V421.05h10.503v9.455
			c0,1.129-0.125,3.072-0.376,5.828h0.376c1.021-1.574,2.197-2.713,3.531-3.41C379.084,432.224,380.601,431.875,382.303,431.875z
			 M378.462,440.123c-1.47,0-2.543,0.51-3.224,1.531c-0.682,1.021-1.021,2.623-1.021,4.809v1.479c0,2.488,0.34,4.273,1.021,5.357
			s1.79,1.625,3.33,1.625c1.236,0,2.186-0.631,2.848-1.895c0.662-1.262,0.994-3.119,0.994-5.572
			C382.411,442.568,381.094,440.123,378.462,440.123z"/>
		<path fill="#FFFFFF" d="M409.045,462.847h-10.503V421.05h10.503V462.847z"/>
		<path fill="#FFFFFF" d="M430.468,463.384c-5.067,0-9.003-1.348-11.807-4.043c-2.803-2.693-4.203-6.531-4.203-11.51
			c0-5.141,1.299-9.084,3.896-11.832c2.597-2.75,6.303-4.125,11.121-4.125c4.584,0,8.125,1.195,10.623,3.586
			s3.747,5.834,3.747,10.33v4.674h-18.776c0.072,1.701,0.694,3.035,1.867,4.002s2.771,1.449,4.795,1.449
			c1.845,0,3.541-0.174,5.09-0.523c1.549-0.348,3.229-0.943,5.037-1.785v7.549c-1.646,0.842-3.349,1.424-5.104,1.746
			C434.998,463.222,432.903,463.384,430.468,463.384z M429.85,439.021c-1.236,0-2.271,0.391-3.104,1.17
			c-0.833,0.777-1.32,2-1.464,3.666h9.025c-0.036-1.469-0.453-2.643-1.249-3.52C432.262,439.46,431.193,439.021,429.85,439.021z"/>
	</g>
</g>
</svg>
