<?xml version="1.0" encoding="utf-8"?>
<!-- Generator: Adobe Illustrator 16.0.4, SVG Export Plug-In . SVG Version: 6.00 Build 0)  -->
<!DOCTYPE svg PUBLIC "-//W3C//DTD SVG 1.1//EN" "http://www.w3.org/Graphics/SVG/1.1/DTD/svg11.dtd">
<svg version="1.1" id="Layer_1" xmlns="http://www.w3.org/2000/svg" xmlns:xlink="http://www.w3.org/1999/xlink" x="0px" y="0px"
	 width="124.942px" height="102px" viewBox="0 0 124.942 102" enable-background="new 0 0 124.942 102" xml:space="preserve">
<path fill="#F7F8F8" d="M124.942,45.334C124.942,30.605,97.06,0,62.663,0C28.268,0,0.385,30.605,0.385,45.334
	C0.385,60.061,28.268,72,62.663,72C97.06,72,124.942,60.061,124.942,45.334z"/>
<g>
	<defs>
		<path id="SVGID_1_" d="M124.942,45.334C124.942,30.605,84.474,0,62.663,0C41.306,0,0.385,30.605,0.385,45.334
			C0.385,60.061,28.268,72,62.663,72C97.06,72,124.942,60.061,124.942,45.334z"/>
	</defs>
	<clipPath id="SVGID_2_">
		<use xlink:href="#SVGID_1_"  overflow="visible"/>
	</clipPath>
	<rect x="-16.667" y="-32" clip-path="url(#SVGID_2_)" fill="#E3E5E5" width="80.734" height="142"/>
</g>
<path fill="#91D1E2" d="M0.385,42C0.14,44.078,0,46.189,0,48.334C0,77.973,24.027,102,53.667,102h17.609
	c29.639,0,53.666-24.027,53.666-53.666c0-2.145-0.141-4.256-0.385-6.334H0.385z"/>
<g>
	<defs>
		<path id="SVGID_3_" d="M0.385,42C0.14,44.078,0,46.189,0,48.334C0,77.973,24.027,102,53.667,102h17.609
			c29.639,0,53.666-24.027,53.666-53.666c0-2.145-0.141-4.256-0.385-6.334H0.385z"/>
	</defs>
	<clipPath id="SVGID_4_">
		<use xlink:href="#SVGID_3_"  overflow="visible"/>
	</clipPath>
	<rect x="-16.667" y="-32" clip-path="url(#SVGID_4_)" fill="#77C5DF" width="80.734" height="142"/>
</g>
<g>
	<path fill="#FFFFFF" d="M25.656,78.023c-0.752,0-1.49-0.066-2.215-0.195c-0.725-0.131-1.424-0.322-2.098-0.574
		c-0.672-0.253-1.306-0.547-1.9-0.887c-0.594-0.34-1.127-0.717-1.599-1.135l3.8-4.129c0.438,0.471,1.019,0.891,1.744,1.258
		c0.725,0.366,1.472,0.551,2.241,0.551c0.349,0,0.668-0.061,0.957-0.185c0.289-0.122,0.433-0.351,0.433-0.683
		c0-0.175-0.049-0.324-0.145-0.447c-0.097-0.121-0.267-0.248-0.511-0.379c-0.245-0.132-0.581-0.276-1.009-0.434
		c-0.428-0.158-0.965-0.342-1.612-0.553c-0.629-0.209-1.232-0.459-1.809-0.748c-0.576-0.289-1.087-0.643-1.533-1.063
		c-0.446-0.419-0.8-0.923-1.062-1.509c-0.262-0.587-0.393-1.291-0.393-2.115c0-1.154,0.236-2.135,0.708-2.94
		c0.471-0.806,1.079-1.466,1.821-1.981c0.743-0.518,1.577-0.89,2.503-1.117c0.926-0.228,1.843-0.342,2.752-0.342
		c1.223,0,2.468,0.236,3.735,0.708s2.381,1.153,3.342,2.044l-3.879,3.958c-0.419-0.524-0.935-0.921-1.546-1.192
		c-0.612-0.271-1.163-0.406-1.651-0.406c-0.455,0-0.822,0.066-1.101,0.197c-0.28,0.131-0.419,0.346-0.419,0.642
		c0,0.28,0.144,0.489,0.433,0.63c0.288,0.141,0.755,0.314,1.402,0.523c0.664,0.211,1.363,0.455,2.097,0.734
		c0.734,0.279,1.411,0.643,2.032,1.088c0.62,0.445,1.131,0.992,1.533,1.638c0.402,0.646,0.603,1.45,0.603,2.411
		c0,1.119-0.223,2.094-0.668,2.924c-0.446,0.83-1.032,1.52-1.756,2.07c-0.726,0.551-1.542,0.961-2.451,1.232
		C27.524,77.887,26.599,78.023,25.656,78.023z"/>
	<path fill="#FFFFFF" d="M44.082,78.023c-1.451,0-2.713-0.202-3.788-0.604c-1.075-0.401-1.971-0.952-2.687-1.651
		c-0.717-0.698-1.25-1.524-1.599-2.478c-0.35-0.951-0.524-1.979-0.524-3.079V58.941h6.239V69.53c0,0.892,0.213,1.586,0.642,2.084
		c0.428,0.497,1.035,0.747,1.821,0.747c0.786,0,1.394-0.25,1.822-0.747c0.428-0.498,0.643-1.192,0.643-2.084V58.941h6.211v11.271
		c0,1.101-0.188,2.128-0.562,3.079c-0.377,0.953-0.931,1.779-1.665,2.478c-0.735,0.699-1.647,1.25-2.74,1.651
		C46.804,77.821,45.532,78.023,44.082,78.023z"/>
	<path fill="#FFFFFF" d="M65.497,77.971c-1.469,0-2.826-0.227-4.076-0.682c-1.25-0.454-2.332-1.105-3.25-1.953
		c-0.918-0.847-1.639-1.873-2.164-3.08c-0.523-1.205-0.785-2.551-0.785-4.036s0.262-2.831,0.785-4.036
		c0.525-1.206,1.24-2.237,2.15-3.094c0.908-0.855,1.975-1.516,3.197-1.979c1.225-0.463,2.533-0.695,3.932-0.695
		c1.451,0,2.826,0.236,4.129,0.708c1.301,0.472,2.363,1.118,3.186,1.94l-3.645,4.377c-0.383-0.455-0.838-0.816-1.361-1.088
		c-0.525-0.271-1.172-0.406-1.941-0.406c-0.506,0-1,0.101-1.48,0.301c-0.48,0.201-0.904,0.49-1.271,0.865
		c-0.367,0.376-0.664,0.826-0.891,1.35c-0.227,0.525-0.34,1.11-0.34,1.757c0,1.293,0.334,2.347,1.008,3.158
		c0.672,0.812,1.752,1.22,3.236,1.22c0.264,0,0.533-0.022,0.812-0.066c0.279-0.043,0.5-0.109,0.656-0.196V70.92h-2.988v-4.902h8.52
		v10.145c-0.438,0.262-0.939,0.502-1.508,0.721s-1.17,0.406-1.809,0.563c-0.637,0.157-1.307,0.284-2.004,0.38
		C66.894,77.922,66.194,77.971,65.497,77.971z"/>
	<path fill="#FFFFFF" d="M81.196,58.941h6.633l7.234,18.558h-6.789l-0.969-2.727h-5.898l-0.918,2.727h-6.605L81.196,58.941z
		 M84.421,65.414l-1.52,4.588h3.014L84.421,65.414z"/>
	<path fill="#FFFFFF" d="M96.374,58.941h7.994c0.908,0,1.812,0.091,2.713,0.274s1.703,0.507,2.412,0.97
		c0.707,0.463,1.279,1.084,1.717,1.861c0.436,0.777,0.654,1.752,0.654,2.922c0,1.137-0.277,2.137-0.836,3.002
		s-1.359,1.533-2.404,2.006l4.709,7.522h-7.166l-3.555-6.632h-0.184v6.632h-6.055V58.941z M102.376,66.778h1.223
		c0.207,0,0.438-0.018,0.689-0.053c0.252-0.034,0.486-0.109,0.701-0.223c0.217-0.113,0.4-0.271,0.547-0.472
		c0.148-0.201,0.223-0.467,0.223-0.8c0-0.332-0.062-0.594-0.184-0.786s-0.277-0.336-0.467-0.433c-0.191-0.096-0.4-0.157-0.625-0.184
		c-0.227-0.026-0.434-0.039-0.625-0.039h-1.482V66.778z"/>
</g>
</svg>
