<?xml version="1.0" encoding="utf-8"?>
<!-- Generator: Adobe Illustrator 16.0.4, SVG Export Plug-In . SVG Version: 6.00 Build 0)  -->
<!DOCTYPE svg PUBLIC "-//W3C//DTD SVG 1.1//EN" "http://www.w3.org/Graphics/SVG/1.1/DTD/svg11.dtd">
<svg version="1.1" id="Layer_1" xmlns="http://www.w3.org/2000/svg" xmlns:xlink="http://www.w3.org/1999/xlink" x="0px" y="0px"
	 width="37.24px" height="46.063px" viewBox="0 0 37.24 46.063" enable-background="new 0 0 37.24 46.063" xml:space="preserve">
<g>
	<path fill-rule="evenodd" clip-rule="evenodd" fill="#FFFFFF" d="M3.227,30.702c0-4.184-0.03-8.369,0.019-12.552
		c0.014-1.202-0.221-2.049-1.289-2.849c-2.348-1.76-2.588-4.926-0.695-7.222c0.526-0.637,0.83-1.245,0.942-2.094
		c0.605-4.577,5.27-7.23,9.483-5.4c1.027,0.446,1.869,0.598,2.971,0.105c2.167-0.966,4.486-0.693,6.192,0.808
		c1.673,1.473,3.832,2.091,5.404,3.494c1.919,1.711,3.52,3.815,5.066,5.893c0.809,1.087,0.533,2.515-0.252,3.567
		c-0.715,0.957-0.436,2.041-0.756,3.034c-0.249,0.771,0.511,0.899,1.104,1.058c3.373,0.904,4.965,2.785,5.477,6.222
		c0.402,2.716,0.539,5.411-0.061,8.112c-0.67,3.012-2.443,4.769-5.516,5.182c-0.956,0.129-1.243,0.445-1.203,1.348
		c0.057,1.26,0.021,2.523,0.021,3.785c-0.002,2.915-0.047,2.886-2.874,2.867c-6.907-0.044-13.815-0.018-20.722-0.013
		c-3.194,0.002-3.293-0.088-3.292-3.19c0.001-4.051,0-8.102,0-12.154C3.242,30.702,3.234,30.702,3.227,30.702z M17.389,29.962
		c0,3.447,0.042,6.896-0.021,10.342c-0.025,1.346,0.641,2.1,1.811,2.123c1.206,0.025,1.826-0.76,1.818-2.093
		c-0.039-6.894-0.066-13.79,0.02-20.683c0.02-1.537-0.732-1.528-1.818-1.509c-1.039,0.018-1.907-0.118-1.849,1.48
		C17.478,23.064,17.39,26.515,17.389,29.962z M15.34,29.989c0-3.319,0.04-6.639-0.036-9.955c-0.014-0.614,0.545-2.065-0.707-1.715
		c-0.957,0.267-2.957-0.718-2.897,1.839c0.156,6.634,0.079,13.273,0.031,19.91c-0.01,1.336,0.37,2.352,1.76,2.339
		c1.452-0.013,1.915-1.017,1.876-2.462C15.279,36.628,15.34,33.308,15.34,29.989z M5.94,18.362
		c-0.027,0.493-0.079,1.017-0.079,1.541c-0.006,6.649,0.027,13.3-0.029,19.95c-0.012,1.393,0.299,2.508,1.788,2.557
		c1.559,0.052,1.824-1.108,1.813-2.48c-0.047-5.852-0.021-11.703-0.021-17.556c0-3.415,0-3.416-3.202-4.092
		C6.155,18.269,6.086,18.316,5.94,18.362z M26.675,30.007c0-3.449-0.076-6.902,0.036-10.349c0.048-1.475-0.636-1.548-1.773-1.56
		c-1.175-0.011-1.763,0.155-1.747,1.584c0.077,6.833,0.061,13.668,0.01,20.5c-0.01,1.281,0.41,2.182,1.668,2.221
		c1.374,0.043,1.863-0.861,1.832-2.246C26.625,36.775,26.675,33.39,26.675,30.007z M30.107,28.362c0.004,0,0.01,0,0.014,0
		c0,2.191,0.024,4.383-0.01,6.572c-0.019,1.172,0.385,1.47,1.4,0.84c0.451-0.279,0.836-0.584,1.137-1.064
		c2.244-3.589,1.852-7.41,1.051-11.271c-0.207-0.999-1.184-1.39-1.766-2.095c-0.373-0.453-0.93-0.542-1.455-0.361
		c-0.605,0.208-0.354,0.789-0.359,1.206C30.092,24.246,30.107,26.304,30.107,28.362z"/>
</g>
</svg>
